<svg xmlns="http://www.w3.org/2000/svg" viewBox="0 0 302.51 503.91"><defs><style>.cls-1{fill:#fff;}</style></defs><g id="Layer_2" data-name="Layer 2"><g id="Layer_1-2" data-name="Layer 1"><path class="cls-1" d="M287.27,84.53C271.79,53.2,248.07,29.73,216.61,15,173.54-5.1,129.84-5,86.4,15.25,64.3,25.48,45.2,39.59,30.84,59.07,11.36,85.41.25,115,0,148.21A127,127,0,0,0,7.74,194c9.5,25.21,20,50.18,30,75.28,7.62,19.1,15,38.2,23,57.17,7.12,17.11,11.23,35.84,25,49.69,1.12,1.13.12,4.25.12,7,5.37,2.38,9.62,15.86,8.37,23.23s-.13,15,0,22.59c0,.38.5.75.62,1.13,2.12,7.61-.37,15.48,1.25,23.22a1,1,0,0,1-.25.5c-2.25,4.37-1.75,8.24,1.87,12,1.63,1.63,2.25,4,3.75,5.74,3.25,3.88,6.12,8.87,10.36,11,7.87,4.12,12.61,10.24,17.11,17.35a10.17,10.17,0,0,0,7.36,4c14.11.13,28.22-.5,42.32-.62,3.87,0,6.37-1.25,8.87-4.5,4.49-6.11,9.24-12.48,15-17.35,5-4.12,9.24-8.37,11.36-14.36,2.24-6.24,5-12.61,5.12-19,.12-3.75-.5-7.62-.5-11.61V417.25c0-6.12,0-12.48.12-18.73.13-9.36,2.38-17.73,8.49-25.34,3.25-3.87,5.25-9,7.12-13.73,5.87-16.11,11.36-32.47,17.23-48.57,1.25-3.5,3.12-6.74,4.49-10.23,6.5-16.86,13.36-33.59,19.36-50.57,7.73-22.09,15.23-44.44,22-66.91,2.87-9.49,5.49-19.61,5.37-29.34-.13-24-4.5-47.32-15.23-69.29Zm-191.51,312c-4.24-7.86-.62-11.1,11.74-10.11a42.66,42.66,0,0,0-4.25,1.13c-2.37,1-4.74,2.12-7,3.12,2,2.87,3.87,5.86,6.12,8.61.62.75,2.37.63,3.62.63h74.66v-1.37H140.08c-5.62,0-11.23.12-16.85-.13a17.14,17.14,0,0,1-7-2c-1.13-.62-2.37-2.75-2.12-4s2-2.5,3.37-3c7.86-2.5,15.85-4.49,24.22-3.37,3.62.5,7.24,2,10.86,2,5-.13,10-1.63,15.1-2.12,7.74-.75,15.73-2.88,23.22,2,1.13.75,3.25-.25,4.87-.25,2.87.13,6.5-1.74,7.37,3.12,1.25,6.62.5,8.62-4.87,9.49-3.12.5-6.24.5-9.24,1.13-1.5.37-3.49,1.49-3.87,2.74-.62,1.87-.12,4.12,0,6.24,2.13-.75,4.25-1.25,6.24-2.12A49.88,49.88,0,0,0,197,405c.25.87.87,2.37.62,2.62-1.87,1.62-4,4.24-6.11,4.37-12.61,1.12-25.22,1.87-38,2.49-6.24.25-12.48.13-18.72.13-2,0-4.62,0-2.75-3.5.5-1-.12-2.5-.12-3.74-1.38.12-3-.13-4.12.5-1.63.87-2.75,2.74-4.37,3.37s-4.62,1.62-5.62.75c-2.75-2.25-.87-4.37,1.37-5.87a34.41,34.41,0,0,0,3.12-2.37c-6.86-.5-12.23-.25-17.1-1.38-3.62-1-8-3-9.49-5.86Zm42.7-85.14c0,.37-.75.75-1.25,1.12-.5-.12-1.12-.12-1.62-.25-.25-8.11-.75-16.35-.88-24.46,0-1.13,1.25-2.25,2-3.5.75.87,2.25,1.62,2.25,2.5C139,295,138.71,303.27,138.46,311.38Zm.75,19.35v27C135.46,355.08,135.46,336.85,139.21,330.73Zm10.36-74c-.12-3.37,2-4.75,4.74-4a6.16,6.16,0,0,1,3.75,4.13c.75,3.61.12,7.48.75,11.1.5,2.75,2.12,5.37,3.37,8.12h-.12a.12.12,0,0,1,.12.12c5.12,3.62,5.74,8.75,5.49,14.61a12.65,12.65,0,0,0,2.5,7.62c0-4.62-.13-9.24.12-13.86a14.15,14.15,0,0,1,1.63-4.12c1,1.12,2.74,2.25,2.87,3.5.62,5,.62,10,.87,14.85.13,3.37.38,6.62.25,10,0,1-.87,2.12-1.37,3.12-1-.88-2.37-1.5-2.87-2.5-.88-2-1.25-4.24-3-6.11a16.61,16.61,0,0,1-.13,4.36,11.71,11.71,0,0,1-1.87,3.25c-.62-1.12-1.62-2.25-1.87-3.37-.37-2.5-.12-5-.62-7.36-1.63-6.5-5.75-8.62-12.74-6,5.75,1.12,11.61,1.87,10.12,9-.38,1.87-3.37,4.12-5.5,4.37-6,1-6.61-4.12-8.61-8.24a69.59,69.59,0,0,1-.63,8.86,13.25,13.25,0,0,1-2,4c-.88-1.13-2.5-2.25-2.63-3.5-.62-6-.75-12-1.12-18,0-.38.37-.88.25-1.25-1.5-5.37-2-9.87,5.49-11.49,1.38-.25,2.5-4.87,2.75-7.61.5-4.5.13-9.12,0-13.61Zm-6.87-8.62c-.25-.12,0-2.12.13-2.12,2.62-.12,5.24,0,7.74-.12,2.24-.13,4.49-.5,6.87-.5a25.41,25.41,0,0,1,5.24.62c.25,0,.5,2,.25,2.12a11.78,11.78,0,0,1-4.37,1.75c-2.87.25-5.75.13-8.62.13-.12.37-.12.62-.24,1-2.25-.87-4.62-1.74-7-2.87Zm29.22,94.76c0-7.49-.13-15,.12-22.47,0-1.62,1.13-3.12,1.75-4.62.75,1.62,2,3.12,2.25,4.74.5,3.87.5,7.87.62,11.87.5,13.85,1,27.84,1.25,41.69,0,2.87-1.37,5.74-2.12,8.62-.88-2.88-2.5-5.75-2.62-8.62-.38-10.36-.13-20.72-.13-31.08a3.31,3.31,0,0,0-1.12-.13Zm-7.87,34.46c.38,5.62-2.24,6.12-6.49,6.49-4.62.38-7.12-.75-7-5.87s-.5-10.23-.75-15.35h-1.5c0,3.87.38,7.86-.12,11.61-.38,3.24-2.12,9-2.62,9-5.25-.63-3.25-5.37-3.38-8.37-.5-17.6-.62-35.33-.75-52.93,0-2.37-1.37-6.24,2.88-6,1.12,0,2.74,4,2.87,6.24.37,10.73.25,21.47.37,32.21a10.34,10.34,0,0,0,.75,2.62,4.93,4.93,0,0,0,1.38-.12V332.48c0-3.74-.25-7.49-.5-11.24-.25-5.11,2.74-6,7.11-6.36,4.75-.38,6.49,1.87,6.62,6,.12,2.62-.38,5.37-.25,8.12s.25,5.24.37,7.86h1.88v-8.61c0-3.5,0-7,.25-10.49,0-.75,1.12-1.5,1.74-2.12.63.75,1.5,1.37,1.75,2.24a22,22,0,0,1,.62,4.87c.5,17.86,1,35.71,1.25,53.56,0,1.62-1,3.25-1.5,5-1.12-1.75-3-3.5-3.12-5.37-.5-8.49-.37-17-.62-25.6a59.43,59.43,0,0,0-.75-6.61,2.5,2.5,0,0,0-.87.12c.25,11-.25,22.22.37,33.46Zm-66.54,29c2.12,8.24,3,9.37,12.11,10,32.58,2,65.17,1.5,97.5-3.49,2.5-.38,6.74.12,7.62,1.62,1.25,2.37.37,6,.37,9.11h-1.62c-1.75-7.86-1.75-7.74-10-6.61-3.87.62-7.86.87-11.73,1.37-1.25.12-3.12,0-3.5.75-1.25,2-1.87,4.37-2.87,6.49,2-.25,4.12-.25,5.87-1s3.12-2.37,5-3.12c.13,6.49-4.74,7.49-9.24,7.74-12.36.88-24.84,1.5-37.32,2.12-6,.25-11.87,0-18.73,0,1-2.12,1.62-3.12,2-4.24.87-3.12-1-4-3.37-3s-4,3-6.12,4.12a18.73,18.73,0,0,1-4.75,1.25,39.22,39.22,0,0,1,.38-5.49,11.7,11.7,0,0,1,1.75-2.88,16.74,16.74,0,0,0-4-1.24c-4.74-.63-9.61-.63-14.23-1.63-5.87-1.24-8-6.74-5.12-11.86Zm1.12,15c1.75,9.24,3.25,10.49,11.49,11.24a402.24,402.24,0,0,0,95.63-4c2.87-.5,6.86.37,8.61,2.24,1.5,1.63.63,5.62-.12,8.49-2.25-8.61-2.5-8.74-11.61-7.24-4.12.63-8.12,1.62-12.36,2-3,.25-4.62,1.37-4.74,4.49,0,1.37-.25,2.75-.38,4.12a30,30,0,0,0,4.62-.87c.87-.38,1.5-1.38,2.37-1.88,1.63-1,3.37-1.74,5-2.62-.87,1.88-1.24,4.25-2.74,5.62a10.85,10.85,0,0,1-6.12,2.63c-17.85,1-35.7,1.62-53.56,2.37a5,5,0,0,1-3.37-1.75c7.87-3.87,16.48-.87,24.6-3.75-4.62,0-9.24.13-13.86-.12-2.75-.13-5.62-1.5-8.36-1.38a23.07,23.07,0,0,0-8.5,2.5c-2.12,1-3.74,5.12-6.49,1.5-2.37-3.25,0-5.25,3-6.74.37-.13.5-.63,1.62-1.75-2.74-.25-4.74-.5-6.86-.75-4.5-.5-9.12-.62-13.61-1.75-5.24-1.37-7.24-6.36-4.24-12.61ZM179,496c-3.37,2-7.36,2.87-11.73,4.49-3.25-1.5-6.87-2.12-9-4.37s-1.63-5.12,2.62-5c5.62.25,11.11.37,16.73.75,3.25.25,3.49,2.87,1.37,4.12Zm16.36-14.11A206.21,206.21,0,0,1,118.11,483c-5.62-1-9.49-4.37-11.36-10.23,11.86,11.36,26.59,9.11,40.57,9,13-.12,26.1-1.62,39.08-2,10.86-.38,17.6-6.12,22.72-15,.5-.88,1-1.63,1.75-3,1,8.49-6.49,18.35-15.48,20.1Zm14.35-23.1c-6.11,2-12.48,3.12-18.72,4.75-1.63.5-4.12,1.12-4.62,2.37-.88,2-.5,4.62-.5,7,2-.87,4.12-1.37,6-2.5s3.5-2.62,5.37-4c.37.5.62,1,1,1.49-2.25,7-8.12,9.37-14.73,10-9.12.88-18.23,1.38-27.35,1.75-5.61.25-11.23,0-16.85-.12a43.15,43.15,0,0,1-5.62-.63c0-.62-.12-1.12-.12-1.74,2-.63,3.87-1.25,5.24-1.75-4.37-4.62-9-3.75-13.73.37-.88.75-3.5-.75-5.24-1.25.75-1.49,1.25-3.12,2.24-4.24.75-.88,2.12-1,3.25-2.5-5.87-.25-11.61-.37-17.48-1-6.74-.62-8.86-2.87-8.86-7.49,2.49,1.38,5.49,4.37,8.86,4.75,32.21,2.62,64.42,1.24,96-6a18.34,18.34,0,0,0,7.25-3.25c1.25-1,1.87-3.75,1.49-5.37-.24-1.12-2.87-2.37-4.36-2.25a131.2,131.2,0,0,0-18.48,2.87c-1.75.5-3.5,3.5-4,5.62-.87,3.62-3,4.62-6.24,4.75-14.35.87-28.59,1.87-42.94,2.49-1.13,0-3.38-1.87-3.13-2.37,1.5-5.37-2-4-4.49-3.24-1.75.5-3,2.24-4.75,2.87-1.49.62-3.24.37-4.87.62a35.29,35.29,0,0,1,1.13-5.24c.25-.63,1.37-.88,2.12-1.25-.12-.38-.37-.88-.5-1.25-5.62-.88-11.36-1.5-17-2.62-6.74-1.37-9-5.87-5.49-12.11-.13,8,4.62,10.49,10.74,10.61,20,.25,39.94.62,59.8-.12,12-.5,23.84-3,35.83-4.62,4-.63,8.11-1.62,9.74,3.62,1.37,4.12-1.25,9.49-6,11Zm5.75-54.8c-.25,2-2.13,3.87-3.37,5.86l-1.5-.75c.5-1.37,1-2.87,1.37-4.24.87-2.62,3.12-5.87-2.62-5.62-.62,0-2-1.87-2-2.87,0-3.5.38-6.87.75-11.23,2.62,1.62,4.25,6,5.49.62,1,.37,2.87.75,2.75,1.12a133.71,133.71,0,0,1-.87,17.11Zm78.73-236c-2.32,14.94-7.34,29.63-12,44.08-5.15,16-11,32-17.15,47.76-5.14,13.22-11.51,26-16.41,39.3-4.65,12.49-8.08,25.47-11.75,38.33a103.41,103.41,0,0,1-20.45,37.84c-2.08,2.45-6.25,3.8-9.55,4.16-6.62.73-13.47.12-20.21.49-4.65.24-6.73-1.71-6.73-6.37-.37-25.83-.86-51.79-1.23-77.63-.12-4,.13-8.2-.73-12.12a15,15,0,0,0-4.16-7.59c-5.15-4.54-4.66-15.06,1.34-18.49,1.59-.86,3.18-2.21,4.9-2.45,9.31-1.23,14.33-8.58,20.57-14.21,1.84-1.59,2.08-5,3.06-7.59-2.32-.61-4.65-1.47-7.1-2-6.12-1.34-12.24-3.06-18.37-3.91a132.63,132.63,0,0,0-18.61-1.6,207.64,207.64,0,0,0-21.31.37c-3.67.24-7.35,1.35-12.36,2.2,5,2.33,8.57,4,12.24,5.63.49.25,2.08-.73,2.08-1-.12-3.92,2.45-3.43,5-3.43,3.92,0,7.72-.12,11.64-.37a17.64,17.64,0,0,1,11.38,2.82c2.21,1.47,7-1.59,10.53-1.35,4.41.24,8.82,1.47,13.11,2.57,1.34.37,2.57,1.47,3.91,2.33-1.1.86-2.2,2.2-3.55,2.57-4.77,1.47-9.79,2.69-14.69,4,4.78-.73,9.55-1.59,14.45-2.21.86-.11,1.71.62,2.57.86-.37.86-.37,2.09-1.1,2.57-2,1.47-3.92,3.43-6.13,3.68-5.75.73-9.06,5.38-13.95,7.47-3.8,1.59-5.64,4.4-5.15,8.69.25,1.84-.24,3.68-.24,5.51-.12,3.92-2,6-6,5.63-.49-5.63-1.35-11.14-1.59-16.77-.25-6.49,2.08-8.69,8.57-8.82,2-.12,4,0,6.12-.86-1.22-.24-2.57-.36-3.8-.73s-2.57-1-5-2c2.82-1.22,4.41-2,6.13-2.69-15.43-.37-31.11-.74-47.64-1.23,5.15,1.23,9.55,2.33,13.23,3.31v1.71c-2.45.86-5.76,1.59-8.45,2.45,4.53.74,9.06,1.35,13.71,2.08a5.73,5.73,0,0,1,1.23.49c3.3,2,4.53,21.06,1.47,23.27s-5.88,1.22-6.86-2.45a4.85,4.85,0,0,1-.25-1.84c.5-8.08-1.95-13.83-10.65-16.65-5.14-1.59-9.55-5.63-14-8.82-1.47-1-2.08-3.18-3.06-4.77,1.71-.13,3.43-.24,5.14-.24a5.24,5.24,0,0,1,1.6.11c-2.09-1.83-4.53-4.52-7.35-6.36-1.35-.86-4.77-1.23-5.39-.37-1.22,1.59-2.32,5.27-1.47,6.25,5.63,6.61,10.29,14.32,19.47,16.89,1.35.37,2.82.62,4.17,1,9.67,2.82,12.61,12.37,7.1,21.07-1.72,2.69-2.33,6.49-2.21,9.79.49,27.92,1.23,55.84,1.72,83.76.12,8.69-.49,9.31-9.43,9.06-7-.12-13.84-.74-20.82-.37-6.12.37-9.91-2.69-12.37-7.22-6.49-12.13-13-24.37-18.61-37-6.73-14.82-12.49-30.12-18.61-45.19-8.08-19.59-16.41-39.06-24.49-58.65C24.59,220.38,19.57,208,14.91,195.4c-6.73-18.49-8.08-37.59-6.36-57.18A141,141,0,0,1,26.42,80.3C46.26,45.64,75.89,24.58,114.1,14.18c20-5.39,39.92-6,60-3.68A119.58,119.58,0,0,1,226,29.11c11.14,7.35,21.92,14.57,30.86,24.62,13.1,14.81,23.75,30.85,30.36,49.59a129.22,129.22,0,0,1,7,64.65Z"/></g></g></svg>